<mxfile host="app.diagrams.net" modified="2023-06-23T19:50:00.638Z" agent="Mozilla/5.0 (Windows NT 10.0; Win64; x64) AppleWebKit/537.36 (KHTML, like Gecko) Chrome/114.0.0.0 Safari/537.36 Edg/114.0.1823.51" etag="h-uZyd1QMe0MvWZvO-0k" version="21.5.0" type="device">
  <diagram id="vRgAs4Oj6B0zC5cQkkvD" name="Page-1">
    <mxGraphModel dx="1958" dy="2024" grid="1" gridSize="10" guides="1" tooltips="1" connect="1" arrows="1" fold="1" page="1" pageScale="1" pageWidth="850" pageHeight="1100" math="0" shadow="0">
      <root>
        <mxCell id="0" />
        <mxCell id="1" parent="0" />
        <mxCell id="xLF2UU8Bo6KfXQ0I-rCn-52" value="" style="rounded=0;whiteSpace=wrap;html=1;fontSize=18;" parent="1" vertex="1">
          <mxGeometry x="10" y="100" width="1300" height="630" as="geometry" />
        </mxCell>
        <mxCell id="xLF2UU8Bo6KfXQ0I-rCn-20" value="" style="rounded=0;whiteSpace=wrap;html=1;fontSize=12;" parent="1" vertex="1">
          <mxGeometry x="500" y="-250" width="300" height="120" as="geometry" />
        </mxCell>
        <mxCell id="xLF2UU8Bo6KfXQ0I-rCn-1" value="" style="rounded=0;whiteSpace=wrap;html=1;" parent="1" vertex="1">
          <mxGeometry x="70" y="140" width="400" height="550" as="geometry" />
        </mxCell>
        <mxCell id="xLF2UU8Bo6KfXQ0I-rCn-3" value="" style="fontColor=#0066CC;verticalAlign=top;verticalLabelPosition=bottom;labelPosition=center;align=center;html=1;outlineConnect=0;fillColor=#CCCCCC;strokeColor=#6881B3;gradientColor=none;gradientDirection=north;strokeWidth=2;shape=mxgraph.networks.load_balancer;rotation=-180;" parent="1" vertex="1">
          <mxGeometry x="270" y="10" width="740" height="80" as="geometry" />
        </mxCell>
        <mxCell id="xLF2UU8Bo6KfXQ0I-rCn-5" value="" style="rounded=0;whiteSpace=wrap;html=1;fontStyle=1" parent="1" vertex="1">
          <mxGeometry x="490" y="140" width="395" height="550" as="geometry" />
        </mxCell>
        <mxCell id="xLF2UU8Bo6KfXQ0I-rCn-6" value="" style="rounded=0;whiteSpace=wrap;html=1;" parent="1" vertex="1">
          <mxGeometry x="890" y="140" width="395" height="550" as="geometry" />
        </mxCell>
        <mxCell id="xLF2UU8Bo6KfXQ0I-rCn-8" value="&lt;font style=&quot;font-size: 18px;&quot;&gt;Control Plane&lt;/font&gt;" style="text;html=1;strokeColor=none;fillColor=none;align=center;verticalAlign=middle;whiteSpace=wrap;rounded=0;" parent="1" vertex="1">
          <mxGeometry x="90" y="160" width="130" height="40" as="geometry" />
        </mxCell>
        <mxCell id="xLF2UU8Bo6KfXQ0I-rCn-9" value="&lt;font style=&quot;font-size: 18px;&quot;&gt;Data/Management Plane&lt;/font&gt;" style="text;html=1;strokeColor=none;fillColor=none;align=center;verticalAlign=middle;whiteSpace=wrap;rounded=0;" parent="1" vertex="1">
          <mxGeometry x="490" y="170" width="210" height="30" as="geometry" />
        </mxCell>
        <mxCell id="xLF2UU8Bo6KfXQ0I-rCn-10" value="Load Balancer" style="text;html=1;align=center;verticalAlign=middle;resizable=0;points=[];autosize=1;strokeColor=none;fillColor=none;fontSize=18;" parent="1" vertex="1">
          <mxGeometry x="580" y="-40" width="140" height="40" as="geometry" />
        </mxCell>
        <mxCell id="xLF2UU8Bo6KfXQ0I-rCn-11" value="" style="aspect=fixed;perimeter=ellipsePerimeter;html=1;align=center;shadow=0;dashed=0;spacingTop=3;image;image=img/lib/active_directory/laptop_client.svg;fontSize=18;" parent="1" vertex="1">
          <mxGeometry x="520" y="-228" width="45" height="50" as="geometry" />
        </mxCell>
        <mxCell id="xLF2UU8Bo6KfXQ0I-rCn-13" value="" style="aspect=fixed;perimeter=ellipsePerimeter;html=1;align=center;shadow=0;dashed=0;spacingTop=3;image;image=img/lib/active_directory/laptop_client.svg;fontSize=18;" parent="1" vertex="1">
          <mxGeometry x="610" y="-228" width="45" height="50" as="geometry" />
        </mxCell>
        <mxCell id="xLF2UU8Bo6KfXQ0I-rCn-14" value="&lt;font style=&quot;font-size: 12px;&quot;&gt;Client 1&lt;/font&gt;" style="text;html=1;align=center;verticalAlign=middle;resizable=0;points=[];autosize=1;strokeColor=none;fillColor=none;fontSize=18;" parent="1" vertex="1">
          <mxGeometry x="505" y="-175" width="60" height="40" as="geometry" />
        </mxCell>
        <mxCell id="xLF2UU8Bo6KfXQ0I-rCn-17" value="Client 2" style="text;html=1;align=center;verticalAlign=middle;resizable=0;points=[];autosize=1;strokeColor=none;fillColor=none;fontSize=12;" parent="1" vertex="1">
          <mxGeometry x="602.5" y="-170" width="60" height="30" as="geometry" />
        </mxCell>
        <mxCell id="xLF2UU8Bo6KfXQ0I-rCn-18" value="" style="sketch=0;outlineConnect=0;fontColor=#232F3E;gradientColor=none;fillColor=#232F3D;strokeColor=none;dashed=0;verticalLabelPosition=bottom;verticalAlign=top;align=center;html=1;fontSize=12;fontStyle=0;aspect=fixed;pointerEvents=1;shape=mxgraph.aws4.mobile_client;" parent="1" vertex="1">
          <mxGeometry x="710" y="-232" width="28.38" height="54" as="geometry" />
        </mxCell>
        <mxCell id="xLF2UU8Bo6KfXQ0I-rCn-19" value="Client 3" style="text;html=1;align=center;verticalAlign=middle;resizable=0;points=[];autosize=1;strokeColor=none;fillColor=none;fontSize=12;" parent="1" vertex="1">
          <mxGeometry x="694.19" y="-170" width="60" height="30" as="geometry" />
        </mxCell>
        <mxCell id="xLF2UU8Bo6KfXQ0I-rCn-21" value="" style="shape=table;startSize=0;container=1;collapsible=0;childLayout=tableLayout;fontSize=12;" parent="1" vertex="1">
          <mxGeometry x="85" y="560" width="370" height="110" as="geometry" />
        </mxCell>
        <mxCell id="xLF2UU8Bo6KfXQ0I-rCn-22" value="" style="shape=tableRow;horizontal=0;startSize=0;swimlaneHead=0;swimlaneBody=0;top=0;left=0;bottom=0;right=0;collapsible=0;dropTarget=0;fillColor=none;points=[[0,0.5],[1,0.5]];portConstraint=eastwest;fontSize=12;" parent="xLF2UU8Bo6KfXQ0I-rCn-21" vertex="1">
          <mxGeometry width="370" height="60" as="geometry" />
        </mxCell>
        <mxCell id="xLF2UU8Bo6KfXQ0I-rCn-23" value="Client ID" style="shape=partialRectangle;html=1;whiteSpace=wrap;connectable=0;overflow=hidden;fillColor=none;top=0;left=0;bottom=0;right=0;pointerEvents=1;fontSize=12;" parent="xLF2UU8Bo6KfXQ0I-rCn-22" vertex="1">
          <mxGeometry width="62" height="60" as="geometry">
            <mxRectangle width="62" height="60" as="alternateBounds" />
          </mxGeometry>
        </mxCell>
        <mxCell id="xLF2UU8Bo6KfXQ0I-rCn-24" value="Type of Image" style="shape=partialRectangle;html=1;whiteSpace=wrap;connectable=0;overflow=hidden;fillColor=none;top=0;left=0;bottom=0;right=0;pointerEvents=1;fontSize=12;" parent="xLF2UU8Bo6KfXQ0I-rCn-22" vertex="1">
          <mxGeometry x="62" width="61" height="60" as="geometry">
            <mxRectangle width="61" height="60" as="alternateBounds" />
          </mxGeometry>
        </mxCell>
        <mxCell id="xLF2UU8Bo6KfXQ0I-rCn-25" value="Job Status" style="shape=partialRectangle;html=1;whiteSpace=wrap;connectable=0;overflow=hidden;fillColor=none;top=0;left=0;bottom=0;right=0;pointerEvents=1;fontSize=12;" parent="xLF2UU8Bo6KfXQ0I-rCn-22" vertex="1">
          <mxGeometry x="123" width="62" height="60" as="geometry">
            <mxRectangle width="62" height="60" as="alternateBounds" />
          </mxGeometry>
        </mxCell>
        <mxCell id="xLF2UU8Bo6KfXQ0I-rCn-26" value="TiimeStamp" style="shape=partialRectangle;html=1;whiteSpace=wrap;connectable=0;overflow=hidden;fillColor=none;top=0;left=0;bottom=0;right=0;pointerEvents=1;fontSize=12;" parent="xLF2UU8Bo6KfXQ0I-rCn-22" vertex="1">
          <mxGeometry x="185" width="70" height="60" as="geometry">
            <mxRectangle width="70" height="60" as="alternateBounds" />
          </mxGeometry>
        </mxCell>
        <mxCell id="xLF2UU8Bo6KfXQ0I-rCn-27" value="" style="shape=partialRectangle;html=1;whiteSpace=wrap;connectable=0;overflow=hidden;fillColor=none;top=0;left=0;bottom=0;right=0;pointerEvents=1;fontSize=12;" parent="xLF2UU8Bo6KfXQ0I-rCn-22" vertex="1">
          <mxGeometry x="255" width="65" height="60" as="geometry">
            <mxRectangle width="65" height="60" as="alternateBounds" />
          </mxGeometry>
        </mxCell>
        <mxCell id="xLF2UU8Bo6KfXQ0I-rCn-28" value="" style="shape=partialRectangle;html=1;whiteSpace=wrap;connectable=0;overflow=hidden;fillColor=none;top=0;left=0;bottom=0;right=0;pointerEvents=1;fontSize=12;" parent="xLF2UU8Bo6KfXQ0I-rCn-22" vertex="1">
          <mxGeometry x="320" width="50" height="60" as="geometry">
            <mxRectangle width="50" height="60" as="alternateBounds" />
          </mxGeometry>
        </mxCell>
        <mxCell id="xLF2UU8Bo6KfXQ0I-rCn-29" value="" style="shape=tableRow;horizontal=0;startSize=0;swimlaneHead=0;swimlaneBody=0;top=0;left=0;bottom=0;right=0;collapsible=0;dropTarget=0;fillColor=none;points=[[0,0.5],[1,0.5]];portConstraint=eastwest;fontSize=12;" parent="xLF2UU8Bo6KfXQ0I-rCn-21" vertex="1">
          <mxGeometry y="60" width="370" height="50" as="geometry" />
        </mxCell>
        <mxCell id="xLF2UU8Bo6KfXQ0I-rCn-30" value="" style="shape=partialRectangle;html=1;whiteSpace=wrap;connectable=0;overflow=hidden;fillColor=none;top=0;left=0;bottom=0;right=0;pointerEvents=1;fontSize=12;" parent="xLF2UU8Bo6KfXQ0I-rCn-29" vertex="1">
          <mxGeometry width="62" height="50" as="geometry">
            <mxRectangle width="62" height="50" as="alternateBounds" />
          </mxGeometry>
        </mxCell>
        <mxCell id="xLF2UU8Bo6KfXQ0I-rCn-31" value="" style="shape=partialRectangle;html=1;whiteSpace=wrap;connectable=0;overflow=hidden;fillColor=none;top=0;left=0;bottom=0;right=0;pointerEvents=1;fontSize=12;" parent="xLF2UU8Bo6KfXQ0I-rCn-29" vertex="1">
          <mxGeometry x="62" width="61" height="50" as="geometry">
            <mxRectangle width="61" height="50" as="alternateBounds" />
          </mxGeometry>
        </mxCell>
        <mxCell id="xLF2UU8Bo6KfXQ0I-rCn-32" value="" style="shape=partialRectangle;html=1;whiteSpace=wrap;connectable=0;overflow=hidden;fillColor=none;top=0;left=0;bottom=0;right=0;pointerEvents=1;fontSize=12;" parent="xLF2UU8Bo6KfXQ0I-rCn-29" vertex="1">
          <mxGeometry x="123" width="62" height="50" as="geometry">
            <mxRectangle width="62" height="50" as="alternateBounds" />
          </mxGeometry>
        </mxCell>
        <mxCell id="xLF2UU8Bo6KfXQ0I-rCn-33" value="" style="shape=partialRectangle;html=1;whiteSpace=wrap;connectable=0;overflow=hidden;fillColor=none;top=0;left=0;bottom=0;right=0;pointerEvents=1;fontSize=12;" parent="xLF2UU8Bo6KfXQ0I-rCn-29" vertex="1">
          <mxGeometry x="185" width="70" height="50" as="geometry">
            <mxRectangle width="70" height="50" as="alternateBounds" />
          </mxGeometry>
        </mxCell>
        <mxCell id="xLF2UU8Bo6KfXQ0I-rCn-34" value="" style="shape=partialRectangle;html=1;whiteSpace=wrap;connectable=0;overflow=hidden;fillColor=none;top=0;left=0;bottom=0;right=0;pointerEvents=1;fontSize=12;" parent="xLF2UU8Bo6KfXQ0I-rCn-29" vertex="1">
          <mxGeometry x="255" width="65" height="50" as="geometry">
            <mxRectangle width="65" height="50" as="alternateBounds" />
          </mxGeometry>
        </mxCell>
        <mxCell id="xLF2UU8Bo6KfXQ0I-rCn-35" value="" style="shape=partialRectangle;html=1;whiteSpace=wrap;connectable=0;overflow=hidden;fillColor=none;top=0;left=0;bottom=0;right=0;pointerEvents=1;fontSize=12;" parent="xLF2UU8Bo6KfXQ0I-rCn-29" vertex="1">
          <mxGeometry x="320" width="50" height="50" as="geometry">
            <mxRectangle width="50" height="50" as="alternateBounds" />
          </mxGeometry>
        </mxCell>
        <mxCell id="xLF2UU8Bo6KfXQ0I-rCn-36" value="&lt;font style=&quot;font-size: 18px;&quot;&gt;Resource Cleaner&lt;/font&gt;" style="text;html=1;strokeColor=none;fillColor=none;align=center;verticalAlign=middle;whiteSpace=wrap;rounded=0;fontSize=12;" parent="1" vertex="1">
          <mxGeometry x="900" y="160" width="160" height="30" as="geometry" />
        </mxCell>
        <mxCell id="xLF2UU8Bo6KfXQ0I-rCn-37" value="" style="shape=table;startSize=0;container=1;collapsible=0;childLayout=tableLayout;fontSize=12;" parent="1" vertex="1">
          <mxGeometry x="497.5" y="560" width="392" height="110" as="geometry" />
        </mxCell>
        <mxCell id="xLF2UU8Bo6KfXQ0I-rCn-38" value="" style="shape=tableRow;horizontal=0;startSize=0;swimlaneHead=0;swimlaneBody=0;top=0;left=0;bottom=0;right=0;collapsible=0;dropTarget=0;fillColor=none;points=[[0,0.5],[1,0.5]];portConstraint=eastwest;fontSize=12;" parent="xLF2UU8Bo6KfXQ0I-rCn-37" vertex="1">
          <mxGeometry width="392" height="60" as="geometry" />
        </mxCell>
        <mxCell id="xLF2UU8Bo6KfXQ0I-rCn-39" value="Client ID" style="shape=partialRectangle;html=1;whiteSpace=wrap;connectable=0;overflow=hidden;fillColor=none;top=0;left=0;bottom=0;right=0;pointerEvents=1;fontSize=12;" parent="xLF2UU8Bo6KfXQ0I-rCn-38" vertex="1">
          <mxGeometry width="62" height="60" as="geometry">
            <mxRectangle width="62" height="60" as="alternateBounds" />
          </mxGeometry>
        </mxCell>
        <mxCell id="xLF2UU8Bo6KfXQ0I-rCn-40" value="Type of Image" style="shape=partialRectangle;html=1;whiteSpace=wrap;connectable=0;overflow=hidden;fillColor=none;top=0;left=0;bottom=0;right=0;pointerEvents=1;fontSize=12;" parent="xLF2UU8Bo6KfXQ0I-rCn-38" vertex="1">
          <mxGeometry x="62" width="62" height="60" as="geometry">
            <mxRectangle width="62" height="60" as="alternateBounds" />
          </mxGeometry>
        </mxCell>
        <mxCell id="xLF2UU8Bo6KfXQ0I-rCn-41" value="Step Executed" style="shape=partialRectangle;html=1;whiteSpace=wrap;connectable=0;overflow=hidden;fillColor=none;top=0;left=0;bottom=0;right=0;pointerEvents=1;fontSize=12;" parent="xLF2UU8Bo6KfXQ0I-rCn-38" vertex="1">
          <mxGeometry x="124" width="62" height="60" as="geometry">
            <mxRectangle width="62" height="60" as="alternateBounds" />
          </mxGeometry>
        </mxCell>
        <mxCell id="xLF2UU8Bo6KfXQ0I-rCn-42" value="Status" style="shape=partialRectangle;html=1;whiteSpace=wrap;connectable=0;overflow=hidden;fillColor=none;top=0;left=0;bottom=0;right=0;pointerEvents=1;fontSize=12;" parent="xLF2UU8Bo6KfXQ0I-rCn-38" vertex="1">
          <mxGeometry x="186" width="62" height="60" as="geometry">
            <mxRectangle width="62" height="60" as="alternateBounds" />
          </mxGeometry>
        </mxCell>
        <mxCell id="xLF2UU8Bo6KfXQ0I-rCn-43" value="TimeStamp" style="shape=partialRectangle;html=1;whiteSpace=wrap;connectable=0;overflow=hidden;fillColor=none;top=0;left=0;bottom=0;right=0;pointerEvents=1;fontSize=12;" parent="xLF2UU8Bo6KfXQ0I-rCn-38" vertex="1">
          <mxGeometry x="248" width="76" height="60" as="geometry">
            <mxRectangle width="76" height="60" as="alternateBounds" />
          </mxGeometry>
        </mxCell>
        <mxCell id="xLF2UU8Bo6KfXQ0I-rCn-44" value="RetryCount" style="shape=partialRectangle;html=1;whiteSpace=wrap;connectable=0;overflow=hidden;fillColor=none;top=0;left=0;bottom=0;right=0;pointerEvents=1;fontSize=12;" parent="xLF2UU8Bo6KfXQ0I-rCn-38" vertex="1">
          <mxGeometry x="324" width="68" height="60" as="geometry">
            <mxRectangle width="68" height="60" as="alternateBounds" />
          </mxGeometry>
        </mxCell>
        <mxCell id="xLF2UU8Bo6KfXQ0I-rCn-45" value="" style="shape=tableRow;horizontal=0;startSize=0;swimlaneHead=0;swimlaneBody=0;top=0;left=0;bottom=0;right=0;collapsible=0;dropTarget=0;fillColor=none;points=[[0,0.5],[1,0.5]];portConstraint=eastwest;fontSize=12;" parent="xLF2UU8Bo6KfXQ0I-rCn-37" vertex="1">
          <mxGeometry y="60" width="392" height="50" as="geometry" />
        </mxCell>
        <mxCell id="xLF2UU8Bo6KfXQ0I-rCn-46" value="" style="shape=partialRectangle;html=1;whiteSpace=wrap;connectable=0;overflow=hidden;fillColor=none;top=0;left=0;bottom=0;right=0;pointerEvents=1;fontSize=12;" parent="xLF2UU8Bo6KfXQ0I-rCn-45" vertex="1">
          <mxGeometry width="62" height="50" as="geometry">
            <mxRectangle width="62" height="50" as="alternateBounds" />
          </mxGeometry>
        </mxCell>
        <mxCell id="xLF2UU8Bo6KfXQ0I-rCn-47" value="" style="shape=partialRectangle;html=1;whiteSpace=wrap;connectable=0;overflow=hidden;fillColor=none;top=0;left=0;bottom=0;right=0;pointerEvents=1;fontSize=12;" parent="xLF2UU8Bo6KfXQ0I-rCn-45" vertex="1">
          <mxGeometry x="62" width="62" height="50" as="geometry">
            <mxRectangle width="62" height="50" as="alternateBounds" />
          </mxGeometry>
        </mxCell>
        <mxCell id="xLF2UU8Bo6KfXQ0I-rCn-48" value="" style="shape=partialRectangle;html=1;whiteSpace=wrap;connectable=0;overflow=hidden;fillColor=none;top=0;left=0;bottom=0;right=0;pointerEvents=1;fontSize=12;" parent="xLF2UU8Bo6KfXQ0I-rCn-45" vertex="1">
          <mxGeometry x="124" width="62" height="50" as="geometry">
            <mxRectangle width="62" height="50" as="alternateBounds" />
          </mxGeometry>
        </mxCell>
        <mxCell id="xLF2UU8Bo6KfXQ0I-rCn-49" value="" style="shape=partialRectangle;html=1;whiteSpace=wrap;connectable=0;overflow=hidden;fillColor=none;top=0;left=0;bottom=0;right=0;pointerEvents=1;fontSize=12;" parent="xLF2UU8Bo6KfXQ0I-rCn-45" vertex="1">
          <mxGeometry x="186" width="62" height="50" as="geometry">
            <mxRectangle width="62" height="50" as="alternateBounds" />
          </mxGeometry>
        </mxCell>
        <mxCell id="xLF2UU8Bo6KfXQ0I-rCn-50" value="" style="shape=partialRectangle;html=1;whiteSpace=wrap;connectable=0;overflow=hidden;fillColor=none;top=0;left=0;bottom=0;right=0;pointerEvents=1;fontSize=12;" parent="xLF2UU8Bo6KfXQ0I-rCn-45" vertex="1">
          <mxGeometry x="248" width="76" height="50" as="geometry">
            <mxRectangle width="76" height="50" as="alternateBounds" />
          </mxGeometry>
        </mxCell>
        <mxCell id="xLF2UU8Bo6KfXQ0I-rCn-51" value="" style="shape=partialRectangle;html=1;whiteSpace=wrap;connectable=0;overflow=hidden;fillColor=none;top=0;left=0;bottom=0;right=0;pointerEvents=1;fontSize=12;" parent="xLF2UU8Bo6KfXQ0I-rCn-45" vertex="1">
          <mxGeometry x="324" width="68" height="50" as="geometry">
            <mxRectangle width="68" height="50" as="alternateBounds" />
          </mxGeometry>
        </mxCell>
        <mxCell id="xLF2UU8Bo6KfXQ0I-rCn-53" value="My cloud Company" style="text;html=1;strokeColor=none;fillColor=none;align=center;verticalAlign=middle;whiteSpace=wrap;rounded=0;fontSize=18;" parent="1" vertex="1">
          <mxGeometry x="20" y="110" width="250" height="20" as="geometry" />
        </mxCell>
        <mxCell id="xLF2UU8Bo6KfXQ0I-rCn-54" value="" style="rounded=0;whiteSpace=wrap;html=1;fontSize=18;" parent="1" vertex="1">
          <mxGeometry x="1340" y="100" width="230" height="630" as="geometry" />
        </mxCell>
        <mxCell id="xLF2UU8Bo6KfXQ0I-rCn-55" value="Customer Tenant" style="text;html=1;strokeColor=none;fillColor=none;align=center;verticalAlign=middle;whiteSpace=wrap;rounded=0;fontSize=18;" parent="1" vertex="1">
          <mxGeometry x="1350" y="110" width="150" height="30" as="geometry" />
        </mxCell>
        <mxCell id="xLF2UU8Bo6KfXQ0I-rCn-56" value="/create&lt;br&gt;/delete&lt;br&gt;/update&lt;br&gt;/read&lt;br&gt;&amp;nbsp; /validation" style="text;html=1;strokeColor=none;fillColor=none;align=center;verticalAlign=middle;whiteSpace=wrap;rounded=0;fontSize=18;" parent="1" vertex="1">
          <mxGeometry x="20" y="770" width="160" height="120" as="geometry" />
        </mxCell>
        <mxCell id="xLF2UU8Bo6KfXQ0I-rCn-62" value="" style="verticalLabelPosition=bottom;html=1;verticalAlign=top;align=center;strokeColor=none;fillColor=#00BEF2;shape=mxgraph.azure.virtual_machine;fontSize=18;" parent="1" vertex="1">
          <mxGeometry x="340" y="250" width="70" height="60" as="geometry" />
        </mxCell>
        <mxCell id="xLF2UU8Bo6KfXQ0I-rCn-63" value="" style="verticalLabelPosition=bottom;html=1;verticalAlign=top;align=center;strokeColor=none;fillColor=#00BEF2;shape=mxgraph.azure.virtual_machine;fontSize=18;" parent="1" vertex="1">
          <mxGeometry x="150" y="250" width="70" height="60" as="geometry" />
        </mxCell>
        <mxCell id="xLF2UU8Bo6KfXQ0I-rCn-64" value="" style="verticalLabelPosition=bottom;html=1;verticalAlign=top;align=center;strokeColor=none;fillColor=#00BEF2;shape=mxgraph.azure.virtual_machine;fontSize=18;" parent="1" vertex="1">
          <mxGeometry x="250" y="250" width="70" height="60" as="geometry" />
        </mxCell>
        <mxCell id="xLF2UU8Bo6KfXQ0I-rCn-65" value="" style="verticalLabelPosition=bottom;html=1;verticalAlign=top;align=center;strokeColor=none;fillColor=#00BEF2;shape=mxgraph.azure.virtual_machine;fontSize=18;" parent="1" vertex="1">
          <mxGeometry x="565" y="250" width="70" height="60" as="geometry" />
        </mxCell>
        <mxCell id="xLF2UU8Bo6KfXQ0I-rCn-66" value="" style="verticalLabelPosition=bottom;html=1;verticalAlign=top;align=center;strokeColor=none;fillColor=#00BEF2;shape=mxgraph.azure.virtual_machine;fontSize=18;" parent="1" vertex="1">
          <mxGeometry x="760" y="250" width="70" height="60" as="geometry" />
        </mxCell>
        <mxCell id="xLF2UU8Bo6KfXQ0I-rCn-67" value="" style="verticalLabelPosition=bottom;html=1;verticalAlign=top;align=center;strokeColor=none;fillColor=#00BEF2;shape=mxgraph.azure.virtual_machine;fontSize=18;" parent="1" vertex="1">
          <mxGeometry x="668.38" y="250" width="70" height="60" as="geometry" />
        </mxCell>
        <mxCell id="xLF2UU8Bo6KfXQ0I-rCn-68" value="" style="verticalLabelPosition=bottom;html=1;verticalAlign=top;align=center;strokeColor=none;fillColor=#00BEF2;shape=mxgraph.azure.virtual_machine;fontSize=18;" parent="1" vertex="1">
          <mxGeometry x="1030" y="250" width="70" height="60" as="geometry" />
        </mxCell>
        <mxCell id="xLF2UU8Bo6KfXQ0I-rCn-69" value="" style="verticalLabelPosition=bottom;html=1;verticalAlign=top;align=center;strokeColor=none;fillColor=#00BEF2;shape=mxgraph.azure.virtual_machine;fontSize=18;" parent="1" vertex="1">
          <mxGeometry x="920" y="250" width="70" height="60" as="geometry" />
        </mxCell>
        <mxCell id="xLF2UU8Bo6KfXQ0I-rCn-70" value="Create Request" style="sketch=0;outlineConnect=0;fontColor=#232F3E;gradientColor=none;strokeColor=#232F3E;fillColor=#ffffff;dashed=0;verticalLabelPosition=bottom;verticalAlign=top;align=center;html=1;fontSize=12;fontStyle=0;aspect=fixed;shape=mxgraph.aws4.resourceIcon;resIcon=mxgraph.aws4.topic_2;" parent="1" vertex="1">
          <mxGeometry x="140" y="340" width="60" height="60" as="geometry" />
        </mxCell>
        <mxCell id="xLF2UU8Bo6KfXQ0I-rCn-71" value="Update Request" style="sketch=0;outlineConnect=0;fontColor=#232F3E;gradientColor=none;strokeColor=#232F3E;fillColor=#ffffff;dashed=0;verticalLabelPosition=bottom;verticalAlign=top;align=center;html=1;fontSize=12;fontStyle=0;aspect=fixed;shape=mxgraph.aws4.resourceIcon;resIcon=mxgraph.aws4.topic_2;" parent="1" vertex="1">
          <mxGeometry x="340" y="350" width="60" height="60" as="geometry" />
        </mxCell>
        <mxCell id="xLF2UU8Bo6KfXQ0I-rCn-72" value="Delete Request" style="sketch=0;outlineConnect=0;fontColor=#232F3E;gradientColor=none;strokeColor=#232F3E;fillColor=#ffffff;dashed=0;verticalLabelPosition=bottom;verticalAlign=top;align=center;html=1;fontSize=12;fontStyle=0;aspect=fixed;shape=mxgraph.aws4.resourceIcon;resIcon=mxgraph.aws4.topic_2;" parent="1" vertex="1">
          <mxGeometry x="240" y="350" width="60" height="60" as="geometry" />
        </mxCell>
        <mxCell id="xLF2UU8Bo6KfXQ0I-rCn-73" value="Status Message Topic&lt;br&gt;" style="sketch=0;outlineConnect=0;fontColor=#232F3E;gradientColor=none;strokeColor=#232F3E;fillColor=#ffffff;dashed=0;verticalLabelPosition=bottom;verticalAlign=top;align=center;html=1;fontSize=12;fontStyle=0;aspect=fixed;shape=mxgraph.aws4.resourceIcon;resIcon=mxgraph.aws4.topic_2;" parent="1" vertex="1">
          <mxGeometry x="612.5" y="350" width="60" height="60" as="geometry" />
        </mxCell>
        <mxCell id="xLF2UU8Bo6KfXQ0I-rCn-74" value="Resource Repear Topic" style="sketch=0;outlineConnect=0;fontColor=#232F3E;gradientColor=none;strokeColor=#232F3E;fillColor=#ffffff;dashed=0;verticalLabelPosition=bottom;verticalAlign=top;align=center;html=1;fontSize=12;fontStyle=0;aspect=fixed;shape=mxgraph.aws4.resourceIcon;resIcon=mxgraph.aws4.topic_2;" parent="1" vertex="1">
          <mxGeometry x="754.19" y="350" width="60" height="60" as="geometry" />
        </mxCell>
        <mxCell id="xLF2UU8Bo6KfXQ0I-rCn-77" value="" style="edgeStyle=elbowEdgeStyle;elbow=horizontal;endArrow=classic;html=1;rounded=0;fontSize=18;" parent="1" source="xLF2UU8Bo6KfXQ0I-rCn-74" target="xLF2UU8Bo6KfXQ0I-rCn-6" edge="1">
          <mxGeometry width="50" height="50" relative="1" as="geometry">
            <mxPoint x="870" y="420" as="sourcePoint" />
            <mxPoint x="720" y="350" as="targetPoint" />
            <Array as="points">
              <mxPoint x="790" y="480" />
              <mxPoint x="790" y="460" />
              <mxPoint x="760" y="460" />
            </Array>
          </mxGeometry>
        </mxCell>
        <mxCell id="xLF2UU8Bo6KfXQ0I-rCn-78" value="" style="edgeStyle=segmentEdgeStyle;endArrow=classic;html=1;rounded=0;fontSize=18;entryX=0.003;entryY=0.595;entryDx=0;entryDy=0;entryPerimeter=0;" parent="1" target="xLF2UU8Bo6KfXQ0I-rCn-5" edge="1">
          <mxGeometry width="50" height="50" relative="1" as="geometry">
            <mxPoint x="640" y="415" as="sourcePoint" />
            <mxPoint x="720" y="350" as="targetPoint" />
            <Array as="points">
              <mxPoint x="640" y="480" />
              <mxPoint x="491" y="480" />
            </Array>
          </mxGeometry>
        </mxCell>
        <mxCell id="xLF2UU8Bo6KfXQ0I-rCn-87" value="Step Functions" style="text;html=1;strokeColor=none;fillColor=none;align=center;verticalAlign=middle;whiteSpace=wrap;rounded=0;fontSize=18;" parent="1" vertex="1">
          <mxGeometry x="375" y="770" width="190" height="30" as="geometry" />
        </mxCell>
        <mxCell id="xLF2UU8Bo6KfXQ0I-rCn-89" value="Retry Job Topic&lt;br&gt;" style="sketch=0;outlineConnect=0;fontColor=#232F3E;gradientColor=none;strokeColor=#232F3E;fillColor=#ffffff;dashed=0;verticalLabelPosition=bottom;verticalAlign=top;align=center;html=1;fontSize=12;fontStyle=0;aspect=fixed;shape=mxgraph.aws4.resourceIcon;resIcon=mxgraph.aws4.topic_2;" parent="1" vertex="1">
          <mxGeometry x="680" y="440" width="60" height="60" as="geometry" />
        </mxCell>
        <mxCell id="xLF2UU8Bo6KfXQ0I-rCn-90" value="Resource Pool to Allocate the Resource&lt;br&gt;Data Center" style="shadow=0;dashed=0;html=1;labelPosition=center;verticalLabelPosition=bottom;verticalAlign=top;align=center;outlineConnect=0;shape=mxgraph.veeam.3d.resource_pool;fontSize=18;" parent="1" vertex="1">
          <mxGeometry x="1020" y="800" width="340" height="170" as="geometry" />
        </mxCell>
        <mxCell id="4D4o3mipnsbIbNA0hUOu-1" value="" style="endArrow=classic;html=1;rounded=0;" parent="1" source="xLF2UU8Bo6KfXQ0I-rCn-71" edge="1">
          <mxGeometry relative="1" as="geometry">
            <mxPoint x="450" y="290" as="sourcePoint" />
            <mxPoint x="550" y="290" as="targetPoint" />
          </mxGeometry>
        </mxCell>
        <mxCell id="4D4o3mipnsbIbNA0hUOu-2" value="" style="shape=message;html=1;outlineConnect=0;" parent="4D4o3mipnsbIbNA0hUOu-1" vertex="1">
          <mxGeometry width="20" height="14" relative="1" as="geometry">
            <mxPoint x="-10" y="-7" as="offset" />
          </mxGeometry>
        </mxCell>
        <mxCell id="4D4o3mipnsbIbNA0hUOu-3" value="" style="endArrow=classic;html=1;rounded=0;exitX=0.407;exitY=1.025;exitDx=0;exitDy=0;exitPerimeter=0;" parent="1" source="xLF2UU8Bo6KfXQ0I-rCn-20" edge="1">
          <mxGeometry width="50" height="50" relative="1" as="geometry">
            <mxPoint x="700" y="-60" as="sourcePoint" />
            <mxPoint x="622" y="-30" as="targetPoint" />
          </mxGeometry>
        </mxCell>
        <mxCell id="4D4o3mipnsbIbNA0hUOu-4" value="" style="endArrow=classic;html=1;rounded=0;" parent="1" edge="1">
          <mxGeometry width="50" height="50" relative="1" as="geometry">
            <mxPoint x="664" y="-30" as="sourcePoint" />
            <mxPoint x="664" y="-130" as="targetPoint" />
          </mxGeometry>
        </mxCell>
        <mxCell id="4D4o3mipnsbIbNA0hUOu-5" value="Response" style="text;html=1;strokeColor=none;fillColor=none;align=center;verticalAlign=middle;whiteSpace=wrap;rounded=0;" parent="1" vertex="1">
          <mxGeometry x="690" y="-100" width="60" height="30" as="geometry" />
        </mxCell>
        <mxCell id="4D4o3mipnsbIbNA0hUOu-6" value="Request" style="text;html=1;align=center;verticalAlign=middle;resizable=0;points=[];autosize=1;strokeColor=none;fillColor=none;" parent="1" vertex="1">
          <mxGeometry x="520" y="-100" width="70" height="30" as="geometry" />
        </mxCell>
        <mxCell id="4D4o3mipnsbIbNA0hUOu-8" value="1. For each operation&amp;nbsp; (create,delete,update) we will write the work flow" style="text;html=1;align=center;verticalAlign=middle;resizable=0;points=[];autosize=1;strokeColor=none;fillColor=none;" parent="1" vertex="1">
          <mxGeometry x="400" y="800" width="400" height="30" as="geometry" />
        </mxCell>
        <mxCell id="4D4o3mipnsbIbNA0hUOu-9" value="2. As each step involves things to be done in specific order that&#39;s why &lt;br&gt;work flows/steps functions are perfect solutions" style="text;html=1;align=center;verticalAlign=middle;resizable=0;points=[];autosize=1;strokeColor=none;fillColor=none;" parent="1" vertex="1">
          <mxGeometry x="400" y="830" width="390" height="40" as="geometry" />
        </mxCell>
      </root>
    </mxGraphModel>
  </diagram>
</mxfile>
